<svg width="188" height="48" viewBox="0 0 188 48" fill="none" xmlns="http://www.w3.org/2000/svg">
<path d="M12.096 48C10.176 48 8.29867 47.8507 6.464 47.552C4.62933 47.296 2.90133 46.912 1.28 46.4V37.824C2.816 38.464 4.45867 38.976 6.208 39.36C8 39.744 9.664 39.936 11.2 39.936C13.2907 39.936 14.8907 39.5733 16 38.848C17.1093 38.08 17.664 36.9707 17.664 35.52C17.664 34.6667 17.4507 33.8773 17.024 33.152C16.64 32.384 15.9573 31.616 14.976 30.848C14.0373 30.0373 12.736 29.1627 11.072 28.224C8.34133 26.6027 6.16533 25.0453 4.544 23.552C2.92267 22.016 1.74933 20.3947 1.024 18.688C0.341333 16.9387 0 14.976 0 12.8C0 8.448 1.38667 5.22667 4.16 3.136C6.976 1.04533 11.0933 0 16.512 0C18.0053 0 19.5413 0.0853322 21.12 0.255997C22.7413 0.383998 24.3413 0.618665 25.92 0.959999V15.36H16.96V4.416L20.096 8.32C19.456 8.23466 18.7947 8.17066 18.112 8.128C17.4293 8.08533 16.8107 8.064 16.256 8.064C13.7387 8.064 11.9253 8.448 10.816 9.216C9.74933 9.94133 9.216 11.1787 9.216 12.928C9.216 13.9947 9.42933 14.976 9.856 15.872C10.3253 16.768 11.0933 17.664 12.16 18.56C13.2693 19.4133 14.7413 20.3733 16.576 21.44C19.136 22.9333 21.1627 24.384 22.656 25.792C24.192 27.1573 25.28 28.6507 25.92 30.272C26.56 31.8507 26.88 33.6853 26.88 35.776C26.88 39.9147 25.664 42.9867 23.232 44.992C20.8427 46.9973 17.1307 48 12.096 48Z" fill="black"/>
<path d="M46.848 48C42.112 48 38.4427 47.0187 35.84 45.056C33.28 43.0933 32 40.2987 32 36.672C32 33.088 33.28 30.3573 35.84 28.48C38.4427 26.56 42.1973 25.6 47.104 25.6H53.824V32.64H47.232C45.0987 32.64 43.4987 32.96 42.432 33.6C41.3653 34.24 40.832 35.2427 40.832 36.608C40.832 37.9307 41.3227 38.9547 42.304 39.68C43.2853 40.3627 44.672 40.704 46.464 40.704C47.5307 40.704 48.4693 40.576 49.28 40.32C50.1333 40.0213 50.944 39.5733 51.712 38.976L49.408 43.648V25.856C49.408 24.3627 49.3013 23.2747 49.088 22.592C48.8747 21.8667 48.4053 21.3973 47.68 21.184C46.9973 20.9707 45.9307 20.864 44.48 20.864C43.4133 20.864 42.3893 20.9067 41.408 20.992C40.4267 21.0773 39.3387 21.248 38.144 21.504C36.992 21.7173 35.584 22.0587 33.92 22.528V15.104C35.456 14.5493 37.2053 14.144 39.168 13.888C41.1307 13.5893 43.2213 13.44 45.44 13.44C48.7253 13.44 51.2853 13.8027 53.12 14.528C54.9973 15.2533 56.32 16.512 57.088 18.304C57.856 20.0533 58.24 22.4853 58.24 25.6V45.952C56.7893 46.592 55.04 47.0827 52.992 47.424C50.944 47.808 48.896 48 46.848 48Z" fill="black"/>
<path d="M63.04 47.36V15.36C64.2773 14.72 65.6213 14.2507 67.072 13.952C68.5227 13.6107 70.1013 13.44 71.808 13.44C73.216 13.44 74.3253 13.5893 75.136 13.888C75.9893 14.144 76.864 14.6347 77.76 15.36C78.8693 14.6347 79.9147 14.144 80.896 13.888C81.8773 13.5893 83.072 13.44 84.48 13.44C86.4853 13.44 88.064 13.7387 89.216 14.336C90.4107 14.9333 91.2427 15.936 91.712 17.344C92.224 18.7093 92.48 20.608 92.48 23.04V47.36H84.416V22.912C84.416 22.4853 84.3733 22.144 84.288 21.888C84.2027 21.632 84.0533 21.44 83.84 21.312C83.6693 21.184 83.4133 21.12 83.072 21.12C82.7733 21.12 82.4747 21.184 82.176 21.312C81.92 21.44 81.6853 21.6107 81.472 21.824V47.36H74.048V22.912C74.048 22.4853 74.0053 22.144 73.92 21.888C73.8347 21.632 73.6853 21.44 73.472 21.312C73.3013 21.184 73.0453 21.12 72.704 21.12C72.1067 21.12 71.5733 21.3547 71.104 21.824V47.36H63.04Z" fill="black"/>
<path d="M110.4 48C106.987 48 104.299 47.6373 102.336 46.912C100.373 46.1867 98.9867 44.9493 98.176 43.2C97.3653 41.408 96.96 38.9547 96.96 35.84V14.08H105.792V35.328C105.792 36.608 105.92 37.6107 106.176 38.336C106.475 39.0613 106.965 39.5733 107.648 39.872C108.373 40.1707 109.333 40.32 110.528 40.32C111.253 40.32 111.893 40.2773 112.448 40.192C113.003 40.064 113.621 39.8507 114.304 39.552C115.029 39.2107 115.947 38.7413 117.056 38.144L113.728 43.648V14.08H122.56V45.952C120.853 46.6347 119.019 47.1467 117.056 47.488C115.093 47.8293 112.875 48 110.4 48Z" fill="black"/>
<path d="M144.192 48C138.816 48 134.827 46.6987 132.224 44.096C129.621 41.4507 128.32 37.4187 128.32 32V29.44C128.32 23.936 129.387 19.904 131.52 17.344C133.696 14.7413 137.109 13.44 141.76 13.44C146.411 13.44 149.803 14.7413 151.936 17.344C154.112 19.904 155.2 23.936 155.2 29.44V34.624H132.672V27.584H148.16L146.624 29.824C146.624 26.5387 146.261 24.256 145.536 22.976C144.811 21.6533 143.573 20.992 141.824 20.992C140.075 20.992 138.837 21.6533 138.112 22.976C137.387 24.256 137.024 26.5387 137.024 29.824V31.616C137.024 34.0907 137.216 35.968 137.6 37.248C138.027 38.4853 138.795 39.3387 139.904 39.808C141.056 40.2347 142.741 40.448 144.96 40.448C146.197 40.448 147.435 40.384 148.672 40.256C149.909 40.128 151.445 39.8507 153.28 39.424V46.976C151.872 47.2747 150.379 47.5093 148.8 47.68C147.221 47.8933 145.685 48 144.192 48Z" fill="black"/>
<path d="M179.712 48C175.744 48 172.907 47.2107 171.2 45.632C169.493 44.0107 168.64 41.3227 168.64 37.568V8.192H159.68V0.639999H177.6V35.392C177.6 37.2693 177.877 38.5493 178.432 39.232C179.029 39.872 180.181 40.192 181.888 40.192C182.997 40.192 184.043 40.0853 185.024 39.872C186.048 39.6587 186.987 39.36 187.84 38.976V46.784C186.517 47.2107 185.195 47.5093 183.872 47.68C182.549 47.8933 181.163 48 179.712 48Z" fill="black"/>
</svg>
